<?xml version="1.0"?>
<svg xmlns="http://www.w3.org/2000/svg" id="outline" viewBox="0 0 512 512" width="512" height="512" fill='#90caf9'><path d="M40,276.94678V496H56V328H216V496h16V277.6897a56.42654,56.42654,0,0,0,24-46.15747V168a40.04552,40.04552,0,0,0-40-40H176a8.00076,8.00076,0,0,0-2.34326-5.65723l-4.30066-4.30078A39.75982,39.75982,0,0,0,176,96V60.94434l3.37891-1.68946A22.83285,22.83285,0,0,0,169.167,16H136A40.04552,40.04552,0,0,0,96,56v72H56a40.04552,40.04552,0,0,0-40,40v62A57.94908,57.94908,0,0,0,40,276.94678ZM216,312H56V285.12646A57.96037,57.96037,0,0,0,125.17627,257.294l3.66113-6.86475,37.87305,27.05225A56.45741,56.45741,0,0,0,216,285.544Zm24-80.46777a40.46751,40.46751,0,0,1-63.98926,32.92968l-39.57959-28.27075,13.34052-25.01343,47.077,20.17579A8.00047,8.00047,0,0,0,208,224V208h32v23.53223ZM216,144a24.02718,24.02718,0,0,1,24,24v24H208V176H192v35.86816L157.32861,197.0083l17.73-33.24365A7.995,7.995,0,0,0,176,160V144ZM136,32h33.167a6.83293,6.83293,0,0,1,3.05615,12.94434L166.11182,48H128a8.00035,8.00035,0,0,0-5.65674,2.34277L112,60.686V56A24.02718,24.02718,0,0,1,136,32ZM112,83.31348,131.31348,64H160V96a24,24,0,0,1-48,0Zm8,66.52148A15.99656,15.99656,0,0,1,112,136v-8.022a40.02655,40.02655,0,0,0,8,4.67187ZM56,144H97.01263a32.13124,32.13124,0,0,0,16.43348,20.48438L80,202.708V176H64v24H32V168A24.0275,24.0275,0,0,1,56,144ZM32,216H64v8a7.99965,7.99965,0,0,0,14.02051,5.26758l56-64A7.99716,7.99716,0,0,0,136,160V136a39.76031,39.76031,0,0,0,22.0423-6.644L160,131.31348V158l-48.94092,91.76465A42.00014,42.00014,0,0,1,32,230Z"/><path d="M144.09326,497.2168l15.81348-2.4336-16-104a7.99984,7.99984,0,0,0-15.70166-.582l-24,104,15.58984,3.59766,14.63281-63.40723Z"/><path d="M460.4375,65.34375l-48-32a8.00131,8.00131,0,0,0-8.875,0l-48,32A7.99943,7.99943,0,0,0,352,72v56a7.99943,7.99943,0,0,0,3.5625,6.65625l48,32a7.99891,7.99891,0,0,0,8.875,0l48-32A7.99943,7.99943,0,0,0,464,128V72A7.99943,7.99943,0,0,0,460.4375,65.34375ZM408,49.61523,441.57788,72,408,94.38477,374.42212,72ZM368,86.948l32,21.33325v36.77026l-32-21.33276Zm48,58.10351V108.28125L448,86.948v36.77075Z"/><rect x="336" y="184" width="24" height="16"/><rect x="376" y="184" width="104" height="16"/><rect x="312" y="216" width="88" height="16"/><rect x="416" y="216" width="80" height="16"/><path d="M296,56V40H272a8.00008,8.00008,0,0,0-8,8V96a8.00008,8.00008,0,0,0,8,8h48a8.00008,8.00008,0,0,0,8-8V51.314l13.65674-13.65673L330.34326,26.34277l-48,48,11.31348,11.31446L312,67.314V88H280V56Z"/><rect x="336" y="400" width="24" height="16"/><rect x="456" y="400" width="24" height="16"/><rect x="376" y="400" width="64" height="16"/><rect x="344" y="432" width="56" height="16"/><rect x="312" y="432" width="16" height="16"/><rect x="416" y="432" width="80" height="16"/><path d="M264,312a8.00008,8.00008,0,0,0,8,8h48a8.00008,8.00008,0,0,0,8-8V267.314l13.65674-13.65673-11.31348-11.31446-48,48,11.31348,11.31446L312,283.314V304H280V272h16V256H272a8.00008,8.00008,0,0,0-8,8Z"/><path d="M464,264H352a8.00008,8.00008,0,0,0-8,8v88a8.00008,8.00008,0,0,0,8,8H464a8.00008,8.00008,0,0,0,8-8V272A8.00008,8.00008,0,0,0,464,264Zm-8,16v12.15479L435.72363,308.376a19.63484,19.63484,0,0,1-24.05468.375,35.50786,35.50786,0,0,0-39.72217-2.04883L360,313.87012V280Zm-96,72V332.52979l20.17822-12.10694a19.56773,19.56773,0,0,1,21.89112,1.12891,35.63529,35.63529,0,0,0,43.64941-.68164L456,312.645V352Z"/></svg>
