<svg id="Layer_5" enable-background="new 0 0 64 64" height="512" viewBox="0 0 64 64" width="512" xmlns="http://www.w3.org/2000/svg" fill='#90caf9'><path d="m41 30.829c0-2.112-1.718-3.829-3.828-3.829-1.023 0-1.984.398-2.707 1.122l-8.872 8.872c-1.202 1.202-2.641 2.151-4.206 2.804 1.008-1.34 1.613-2.998 1.613-4.798 0-4.411-3.589-8-8-8s-8 3.589-8 8c0 2.498 1.152 4.73 2.951 6.199-5.088.963-8.951 5.436-8.951 10.801v11h23v-12.829c0-.488.19-.948.535-1.293l15.344-15.343c.723-.723 1.121-1.684 1.121-2.706zm-25 12.171.899-.125c-.257 1.212-1.018 2.125-1.899 2.125-.851 0-1.59-.85-1.873-2zm-7-8c0-3.309 2.691-6 6-6s6 2.691 6 6-2.691 6-6 6-6-2.691-6-6zm29.465-2.878-15.344 15.343c-.723.723-1.121 1.684-1.121 2.706v10.829h-14v-12h-2v12h-3v-9c0-4.656 3.554-8.497 8.091-8.954.386 2.256 1.99 3.954 3.909 3.954 2.05 0 3.724-1.944 3.954-4.43 3.031-.526 5.877-1.987 8.053-4.163l8.872-8.872c.341-.34.811-.535 1.293-.535 1.008 0 1.828.82 1.828 1.829 0 .488-.19.947-.535 1.293z"/><path d="m57.016 41.223c1.817-1.468 2.984-3.711 2.984-6.223 0-4.411-3.589-8-8-8s-8 3.589-8 8c0 3.808 2.677 6.998 6.246 7.8-1.215 1.001-2.143 2.355-2.578 3.95l-1.432 5.25h-9.736c-1.93 0-3.5 1.57-3.5 3.5s1.57 3.5 3.5 3.5h9.5v4h17v-14.196c0-3.676-2.557-6.758-5.984-7.581zm-11.016-6.223c0-3.309 2.691-6 6-6s6 2.691 6 6-2.691 6-6 6-6-2.691-6-6zm15 26h-13v-2h.838c1.725 0 3.249-1.099 3.794-2.735l3.316-9.949-1.896-.633-3.316 9.949c-.274.819-1.036 1.368-1.898 1.368h-12.338c-.827 0-1.5-.673-1.5-1.5s.673-1.5 1.5-1.5h11.264l1.834-6.724c.686-2.518 2.989-4.276 5.598-4.276 3.2 0 5.804 2.604 5.804 5.804z"/><path d="m13 11h2v2h-2z"/><path d="m17 11h12v2h-12z"/><path d="m13 15h16v2h-16z"/><path d="m13 19h16v2h-16z"/><path d="m57 9h2v2h-2z"/><path d="m35 9h20v2h-20z"/><path d="m35 13h24v2h-24z"/><path d="m35 17h24v2h-24z"/><path d="m58 1h-22c-2.757 0-5 2.243-5 5v1h-18c-2.206 0-4 1.794-4 4v10c0 2.206 1.794 4 4 4h9v4.869l7.303-4.869h1.697c1.542 0 2.91-.907 3.572-2.233.456.137.929.233 1.428.233h2.697l7.303 4.869v-4.869h12c2.757 0 5-2.243 5-5v-12c0-2.757-2.243-5-5-5zm-27 22h-2.303l-4.697 3.131v-3.131h-11c-1.103 0-2-.897-2-2v-10c0-1.103.897-2 2-2h18v9c0 1.541.715 2.903 1.814 3.821-.318.697-1.019 1.179-1.814 1.179zm30-5c0 1.654-1.346 3-3 3h-14v3.131l-4.697-3.131h-3.303c-1.654 0-3-1.346-3-3v-12c0-1.654 1.346-3 3-3h22c1.654 0 3 1.346 3 3z"/><path d="m35 5h2v2h-2z"/><path d="m39 5h2v2h-2z"/><path d="m43 5h16v2h-16z"/></svg>