<svg id="Layer_1" enable-background="new 0 0 511.998 511.998" height="512" viewBox="0 0 511.998 511.998" width="512" xmlns="http://www.w3.org/2000/svg" fill='#90caf9'><g><path d="m438.163 511.998v-30h-149.867l182.163-215.746h-82.264v-266.252h-264.393v266.252h-82.263l182.164 215.746h-149.84v30zm-284.361-215.746v-266.252h204.394v266.252h47.67l-149.866 177.495-149.868-177.495z"/><path d="m270.999 255.731v-20.239h5.029c24.413 0 44.274-19.861 44.274-44.274s-19.861-44.274-44.274-44.274h-32.175c-7.243 0-13.136-5.893-13.136-13.136s5.893-13.136 13.136-13.136h54.322v-30h-27.177v-20.239h-30v20.344c-22.458 1.476-40.281 20.206-40.281 43.031 0 23.785 19.351 43.136 43.136 43.136h32.175c7.871 0 14.274 6.403 14.274 14.274s-6.403 14.274-14.274 14.274h-69.333v30h34.304v20.239z"/></g></svg>